<?xml version="1.0" encoding="utf-8"?>
<!-- Generator: Adobe Illustrator 19.0.0, SVG Export Plug-In . SVG Version: 6.00 Build 0)  -->
<svg version="1.1" id="Layer_1" xmlns="http://www.w3.org/2000/svg" xmlns:xlink="http://www.w3.org/1999/xlink" x="0px" y="0px"
	 viewBox="0 0 64 64" style="enable-background:new 0 0 64 64;" xml:space="preserve">
<style type="text/css">
	.st0{fill:#DB934C;}
</style>
<g id="XMLID_207_">
	<path id="XMLID_209_" class="st0" d="M31.6,35.2L61.4,12c-1-0.7-2.2-1-3.4-1H6c-1.2,0-2.2,0.3-3.1,0.8L31.6,35.2z"/>
	<path id="XMLID_208_" class="st0" d="M44.4,36.4c-0.8-0.8-0.8-2,0-2.8s2-0.8,2.8,0l16.2,16.2c0.4-0.8,0.6-1.7,0.6-2.6V16.9
		c0-0.6-0.1-1.1-0.3-1.6l-31,24.1c-0.3,0.3-0.8,0.4-1.3,0.4s-0.9-0.2-1.3-0.5L0.3,14.8C0.2,15.4,0,16.1,0,16.9v30.3
		c0,0.8,0.2,1.6,0.4,2.3l15.9-15.9c0.8-0.8,2-0.8,2.9,0c0.8,0.8,0.8,2,0,2.8L3.2,52.3C4,52.8,4.9,53,6,53h52c0.9,0,1.8-0.2,2.5-0.5
		L44.4,36.4z"/>
</g>
</svg>
