<?xml version="1.0" encoding="utf-8"?>
<!-- Generator: Adobe Illustrator 19.0.0, SVG Export Plug-In . SVG Version: 6.00 Build 0)  -->
<svg version="1.1" id="Layer_1" xmlns="http://www.w3.org/2000/svg" xmlns:xlink="http://www.w3.org/1999/xlink" x="0px" y="0px"
	 viewBox="0 0 64 64" style="enable-background:new 0 0 64 64;" xml:space="preserve">
<style type="text/css">
	.st0{fill:#DB934C;}
</style>
<path id="XMLID_284_" class="st0" d="M56.9,15.4h-47c0,0-3.6-0.6-3.6-2.9l51.2-5V3.2c0,0-0.5-3.8-6.3-2.9L5.7,8.1
	C5.7,8.1,0,8.8,0,16v40.6c0,4,3.2,7.3,7,7.3h49.9c4,0,7.1-3.5,7.1-7.3v-34C64,18.6,60.8,15.4,56.9,15.4z M52.6,44.5
	c-2.8,0-5-2.3-5-5s2.3-5,5-5c2.8,0,5,2.3,5,5S55.3,44.5,52.6,44.5z"/>
</svg>
