<?xml version="1.0" encoding="utf-8"?>
<!-- Generator: Adobe Illustrator 19.0.0, SVG Export Plug-In . SVG Version: 6.00 Build 0)  -->
<svg version="1.1" id="Layer_1" xmlns="http://www.w3.org/2000/svg" xmlns:xlink="http://www.w3.org/1999/xlink" x="0px" y="0px"
	 viewBox="0 0 64 64" style="enable-background:new 0 0 64 64;" xml:space="preserve">
<style type="text/css">
	.st0{fill-rule:evenodd;clip-rule:evenodd;}
</style>
<path class="st0" d="M40.8,19.4L32,28.2l-8.8-8.8c-1-1-2.7-1-3.8,0c-1,1-1,2.7,0,3.8l8.8,8.8l-8.8,8.8c-1,1-1,2.7,0,3.8
	c1.1,1,2.7,1,3.8,0l8.8-8.8l8.8,8.8c1,1,2.7,1,3.8,0c1-1,1-2.7,0-3.8L35.8,32l8.8-8.8c1-1,1-2.7,0-3.8
	C43.5,18.4,41.8,18.4,40.8,19.4z M32,0c17.6,0,32,14.4,32,32S49.6,64,32,64C14.4,64,0,49.6,0,32S14.4,0,32,0z"/>
</svg>
