<?xml version="1.0" encoding="utf-8"?>
<!-- Generator: Adobe Illustrator 19.0.0, SVG Export Plug-In . SVG Version: 6.00 Build 0)  -->
<svg version="1.1" id="Layer_1" xmlns="http://www.w3.org/2000/svg" xmlns:xlink="http://www.w3.org/1999/xlink" x="0px" y="0px"
	 viewBox="0 0 64 64" style="enable-background:new 0 0 64 64;" xml:space="preserve">
<g>
	<path d="M58,28.3c1.2,0,2.2-1,2.2-2.2s-1-2.2-2.2-2.2s-2.2,1-2.2,2.2S56.8,28.3,58,28.3z M58,25.3c0.4,0,0.7,0.3,0.7,0.7
		s-0.3,0.7-0.7,0.7c-0.4,0-0.7-0.3-0.7-0.7S57.6,25.3,58,25.3z"/>
	<path d="M19.3,42.4h25.3c0.4,0,0.8-0.4,0.8-0.7c0-0.4-0.4-0.7-0.8-0.7H19.3c0,0-0.1,0-0.1,0c-0.4,0-0.7,0.4-0.7,0.8
		C18.6,42.1,19,42.5,19.3,42.4z"/>
	<path d="M19.3,48.4h25.3c0.4,0,0.8-0.4,0.8-0.7c0-0.4-0.4-0.7-0.8-0.7H19.3c0,0-0.1,0-0.1,0c-0.4,0-0.7,0.4-0.7,0.8
		C18.6,48.1,19,48.4,19.3,48.4z"/>
	<path d="M19.3,54.3h25.3c0.4,0,0.8-0.4,0.8-0.7c0-0.4-0.4-0.7-0.8-0.7H19.3c0,0-0.1,0-0.1,0c-0.4,0-0.7,0.4-0.7,0.8
		C18.6,54,19,54.4,19.3,54.3z"/>
	<path d="M63.3,20.1H49.1V6c0-0.4-0.4-0.7-0.7-0.7H15.6c0,0-0.1,0-0.1,0c-0.3,0.1-0.6,0.4-0.6,0.7v14.1H0.7c0,0,0,0-0.1,0
		c-0.4,0-0.7,0.4-0.7,0.7v25.3c0,0.4,0.4,0.7,0.7,0.7h14.1V58c0,0.4,0.4,0.7,0.7,0.7h32.7c0.4,0,0.7-0.4,0.7-0.7V46.9h14.1
		c0.4,0,0.7-0.4,0.7-0.7V20.8C64,20.4,63.6,20.1,63.3,20.1z M16.4,6.7h31.3v13.4H16.4V6.7z M47.6,57.3H16.4V38h31.3V57.3z
		 M62.5,45.4H49.1v-8.2c0-0.4-0.4-0.7-0.7-0.7H15.6c0,0-0.1,0-0.1,0c-0.3,0.1-0.6,0.4-0.6,0.7v8.2H1.5V21.6h61V45.4z"/>
</g>
</svg>
