<?xml version="1.0" encoding="utf-8"?>
<!-- Generator: Adobe Illustrator 19.0.0, SVG Export Plug-In . SVG Version: 6.00 Build 0)  -->
<svg version="1.1" id="Layer_1" xmlns="http://www.w3.org/2000/svg" xmlns:xlink="http://www.w3.org/1999/xlink" x="0px" y="0px"
	 viewBox="0 0 64 64" style="enable-background:new 0 0 64 64;" xml:space="preserve">
<style type="text/css">
	.st0{fill:#DB934C;}
</style>
<path id="XMLID_224_" class="st0" d="M61.5,43.9V32.1c0-2.7,0.3-5.6-1.7-7.6l-7.3-7.3c-1-1-2.6-1.7-4-1.7h-6.2V8.3
	C42.5,7,41.6,6,40.3,6H2.4C1.1,6,0,7,0,8.5h0.5v37.8c0,2.8,2.8,2.4,4.7,2.4c0,5.2,4.2,9.4,9.4,9.4s9.4-4,9.4-9.5h14.2
	c0,5.5,4.3,9.4,9.4,9.4s9.4-3.9,9.4-9.4h2.4c1.9,0,4.7,0.5,4.7-2.3C64,44.9,63,43.9,61.5,43.9z M14.2,53.4c-2.7,0-4.8-2.1-4.8-4.8
	c0-2.7,2.1-4.8,4.8-4.8S19,46,19,48.7S16.9,53.4,14.2,53.4z M47.3,53.4c-2.7,0-4.8-2.1-4.8-4.8c0-2.7,2.1-4.8,4.8-4.8
	c2.7,0,4.8,2.1,4.8,4.8S50,53.4,47.3,53.4z M57,29.5H42.5v-9h6c0.2,0,0.7,0.2,0.8,0.3l7.2,7.1c0.2,0.2,0.5,0.6,0.5,0.8V29.5z"/>
</svg>
