<?xml version="1.0" encoding="utf-8"?>
<!-- Generator: Adobe Illustrator 19.0.0, SVG Export Plug-In . SVG Version: 6.00 Build 0)  -->
<svg version="1.1" id="Layer_1" xmlns="http://www.w3.org/2000/svg" xmlns:xlink="http://www.w3.org/1999/xlink" x="0px" y="0px"
	 viewBox="0 0 64 64" style="enable-background:new 0 0 64 64;" xml:space="preserve">
<style type="text/css">
	.st0{fill:#DB934C;}
</style>
<path id="XMLID_186_" class="st0" d="M10.6,28.6c0,0.5-0.1,1-0.3,1.5s-0.4,0.8-0.8,1.2c-0.3,0.3-0.6,0.7-1.1,1
	c-0.4,0.3-0.8,0.6-1.3,0.8c-0.7,0.4-1.3,0.8-1.8,1.2c-0.6,0.3-0.9,0.8-1,1.2H10c0.1,0,0.2,0,0.3,0.1c0.1,0.1,0.1,0.2,0.1,0.3V39
	c0,0.1-0.1,0.2-0.1,0.3c-0.1,0.1-0.2,0.1-0.3,0.1H0.4c-0.1,0-0.2,0-0.3-0.1c0,0-0.1-0.1-0.1-0.2v-2.2c0-0.8,0.1-1.5,0.3-2
	s0.4-1.1,0.8-1.6c0.4-0.5,0.7-0.9,1.1-1.3c0.5-0.4,0.9-0.7,1.3-1c0.6-0.4,1-0.7,1.3-0.9c0.3-0.2,0.6-0.3,0.7-0.5
	c0.2-0.1,0.3-0.3,0.3-0.3c0.1-0.1,0.1-0.3,0.1-0.4c0-0.1,0-0.2-0.1-0.3c-0.1-0.1-0.1-0.1-0.2-0.2c-0.1,0-0.3-0.1-0.5-0.1
	c-0.2,0-0.5,0-0.9,0c-0.7,0-1.3,0-1.9,0c-0.6,0-1.3,0.1-1.9,0.1l0,0c-0.1,0-0.2,0-0.3-0.1c0-0.1-0.1-0.2-0.1-0.3v-2.3
	c0-0.1,0-0.2,0.1-0.3c0.1,0,0.2-0.1,0.3-0.2c0.6-0.3,1.4-0.5,2.1-0.6c0.8-0.2,1.7-0.3,2.6-0.3c1,0,1.8,0.1,2.5,0.3
	c0.7,0.1,1.3,0.4,1.6,0.8c0.4,0.3,0.8,0.8,0.9,1.3S10.6,28,10.6,28.6z M24,33.1c0,2.2-0.5,3.8-1.5,4.8s-2.4,1.5-4.1,1.5
	c-1.9,0-3.2-0.5-4.1-1.5s-1.4-2.7-1.4-4.8V31c0-2.1,0.5-3.8,1.4-4.8s2.4-1.6,4.1-1.6s3.2,0.5,4.1,1.6c1,1,1.5,2.6,1.5,4.8V33.1z
	 M19.4,31c0-0.5,0-1,0-1.3s-0.1-0.5-0.2-0.8s-0.2-0.3-0.3-0.4c-0.1,0-0.3,0-0.5,0s-0.3,0-0.4,0.1c-0.1,0-0.3,0.2-0.3,0.4
	c-0.1,0.2-0.1,0.4-0.2,0.8c0,0.3,0,0.8,0,1.3v2.1c0,0.5,0,1,0,1.3s0.1,0.5,0.2,0.8s0.2,0.3,0.3,0.3c0.1,0,0.3,0.1,0.4,0.1
	s0.3,0,0.4-0.1c0.1,0,0.3-0.2,0.3-0.3c0.1-0.2,0.1-0.4,0.2-0.8c0-0.3,0-0.8,0-1.3L19.4,31L19.4,31z M37.2,33.1
	c0,2.2-0.5,3.8-1.5,4.8s-2.3,1.5-4.1,1.5c-1.9,0-3.2-0.5-4.1-1.5c-1-1-1.5-2.7-1.5-4.8V31c0-2.1,0.5-3.8,1.5-4.8s2.4-1.6,4.1-1.6
	c1.8,0,3.2,0.5,4.1,1.6c1,1,1.5,2.6,1.5,4.8V33.1z M32.5,31c0-0.5,0-1,0-1.3s-0.1-0.5-0.2-0.8c-0.1-0.2-0.2-0.3-0.3-0.4
	c-0.2,0-0.3,0-0.4,0s-0.3,0-0.4,0.1c-0.1,0-0.3,0.2-0.3,0.4c-0.1,0.2-0.1,0.4-0.2,0.8c0,0.3,0,0.8,0,1.3v2.1c0,0.5,0,1,0,1.3
	s0.1,0.5,0.2,0.8s0.2,0.3,0.3,0.3c0.1,0,0.3,0.1,0.4,0.1s0.3,0,0.4-0.1c0.1,0,0.2-0.2,0.3-0.3c0.1-0.2,0.2-0.4,0.2-0.8
	c0-0.3,0-0.8,0-1.3V31z M52.3,39.1c0,0.2-0.1,0.3-0.3,0.3h-4.6c-0.2,0-0.3,0-0.5-0.1c-0.1-0.1-0.2-0.2-0.2-0.3l-3-6v6
	c0,0.1,0,0.2-0.1,0.3c-0.1,0.1-0.2,0.1-0.3,0.1h-3.8c-0.1,0-0.2,0-0.3-0.1c-0.1-0.1-0.2-0.2-0.2-0.3V25.2c0-0.1,0-0.2,0.2-0.3
	c0.1-0.1,0.2-0.1,0.3-0.1h3.8c0.1,0,0.2,0,0.3,0.1c0.1,0.1,0.1,0.2,0.1,0.3v6.2l3.3-6.2c0-0.1,0.1-0.2,0.2-0.3
	c0-0.1,0.2-0.1,0.3-0.1H52c0.2,0,0.3,0.1,0.3,0.3c0,0,0,0.1,0,0.1l-3.9,6.9l3.9,6.9C52.2,39,52.3,39.1,52.3,39.1z M63.9,33.2
	c-0.1,0-0.2,0.1-0.3,0.1h-2.8v2.8c0,0.1,0,0.2-0.1,0.3c0,0.1-0.2,0.1-0.3,0.1H58c-0.1,0-0.2,0-0.3-0.1c0-0.1-0.1-0.2-0.1-0.3v-2.8
	h-2.8c-0.1,0-0.2,0-0.3-0.1c-0.1,0-0.1-0.2-0.1-0.3v-2.5c0-0.1,0-0.2,0.1-0.3c0.1,0,0.2-0.1,0.3-0.1h2.8v-2.8c0-0.1,0-0.2,0.1-0.3
	c0-0.1,0.2-0.1,0.3-0.1h2.5c0.1,0,0.2,0,0.3,0.1c0,0.1,0.1,0.2,0.1,0.3v2.8h2.8c0.1,0,0.2,0,0.3,0.1c0.1,0,0.1,0.1,0.1,0.3V33
	C64,33.1,64,33.1,63.9,33.2z"/>
</svg>
