<?xml version="1.0" encoding="utf-8"?>
<!-- Generator: Adobe Illustrator 19.0.0, SVG Export Plug-In . SVG Version: 6.00 Build 0)  -->
<svg version="1.1" id="Layer_1" xmlns="http://www.w3.org/2000/svg" xmlns:xlink="http://www.w3.org/1999/xlink" x="0px" y="0px"
	 viewBox="0 0 64 64" style="enable-background:new 0 0 64 64;" xml:space="preserve">
<g>
	<path d="M53.4,46.3h-4.7v-4.7c0-0.4-0.3-0.8-0.7-0.8s-0.7,0.4-0.7,0.7v4.8h-4.7h-0.1c-0.4,0-0.7,0.4-0.7,0.8c0,0.4,0.4,0.7,0.8,0.7
		h4.7v4.7c0,0.4,0.4,0.7,0.7,0.7c0.4,0,0.7-0.4,0.7-0.7v-4.8h4.7c0.4,0,0.7-0.4,0.7-0.7C54.2,46.6,53.8,46.3,53.4,46.3z"/>
	<path d="M48,35.8c-6.2,0-11.2,5-11.2,11.2c0,6.2,5,11.2,11.2,11.2c6.2,0,11.2-5,11.2-11.2C59.2,40.8,54.2,35.8,48,35.8z M48,56.8
		c-5.4,0-9.8-4.4-9.8-9.8c0-5.4,4.4-9.8,9.8-9.8c5.4,0,9.8,4.4,9.8,9.8C57.7,52.4,53.4,56.8,48,56.8z"/>
	<path d="M31.9,52.4V25.1h18.2V34c0.8,0.1,1.6,0.3,2.3,0.6v-9.5h1.1c0.7,0,1.2-0.5,1.2-1.2v-9.1c0-0.7-0.5-1.2-1.2-1.2H37.4
		c2.4-2.1,4.7-5.3,4.7-7.9C42.1,2,39.8,0,35.9,0c-1.7,0-6.4,0.6-8.6,6.9C25.1,0.6,20.4,0,18.7,0c-3.9,0-6.2,2.1-6.2,5.7
		c0,2.6,2.3,5.8,4.7,7.9h-16c-0.7,0-1.2,0.5-1.2,1.2v9.1c0,0.7,0.5,1.2,1.2,1.2h1.1v28.4c0,0.7,0.5,1.2,1.2,1.2h33.8
		c-0.5-0.7-0.9-1.5-1.3-2.3H31.9z M35.9,2.3c3.4,0,3.9,1.7,3.9,3.4c0,3.3-5.1,8-6.7,8h-4.6C28.8,3.4,33.7,2.3,35.9,2.3z M14.9,5.6
		c0-1.5,0.4-3.4,3.9-3.4c2.2,0,7,1.1,7.4,11.1c0,0.1,0,0.2,0,0.3h-4.5C20,13.6,14.9,8.8,14.9,5.6z M22.7,52.4H4.5V25.1h18.2V52.4z
		 M29.6,52.4H25V25.1h4.6V52.4z M29.6,22.7H25V16h-2.3v6.8H3.4H2.3v-6.9H21c0.2,0,0.4,0.1,0.6,0.1c0.1,0,0.3,0,0.4-0.1h4.9
		c0.1,0,0.2,0.1,0.4,0.1c0,0,0,0,0,0c0,0,0,0,0,0c0.1,0,0.3,0,0.4-0.1h4.9c0.1,0,0.2,0.1,0.4,0.1c0.2,0,0.4,0,0.6-0.1h18.8v6.9h-1.2
		H31.9V16h-2.3V22.7z"/>
</g>
</svg>
