<?xml version="1.0" encoding="utf-8"?>
<!-- Generator: Adobe Illustrator 19.0.0, SVG Export Plug-In . SVG Version: 6.00 Build 0)  -->
<svg version="1.1" id="Layer_1" xmlns="http://www.w3.org/2000/svg" xmlns:xlink="http://www.w3.org/1999/xlink" x="0px" y="0px"
	 viewBox="0 0 64 64" style="enable-background:new 0 0 64 64;" xml:space="preserve">
<style type="text/css">
	.st0{fill:#DB934C;}
</style>
<path id="XMLID_302_" class="st0" d="M58.7,10H6.5C3.3,10,0,12.9,0,16.1v32.3C0,51.6,3.3,54,6.5,54h52.2c3.2,0,5.3-2.3,5.3-5.6V16.1
	C64,12.9,61.8,10,58.7,10z M32.6,49.1c-9.3,0-16.8-7.6-16.8-16.8s7.5-16.9,16.8-16.9S49.3,23,49.3,32.2
	C49.3,41.5,41.9,49.1,32.6,49.1z M38.8,33.1c0.5,0.8,0.8,1.8,0.8,2.9c0,0.6-0.1,1.3-0.3,1.8s-0.5,1.2-0.9,1.7
	c-0.4,0.5-0.9,1-1.5,1.4c-0.7,0.4-1.3,0.7-2.3,0.9v2.5c0,0.2-0.1,0.3-0.2,0.4C34.2,44.9,34,45,33.8,45h-3.8c-0.1,0-0.4-0.1-0.5-0.2
	c0-0.1-0.1-0.3-0.1-0.5v-2.4c-0.5-0.1-1-0.2-1.5-0.3s-0.9-0.3-1.3-0.3c-0.1-0.1-0.3-0.1-0.4-0.2C26.1,41,26,40.9,26,40.8V37
	c0-0.2,0.1-0.3,0.2-0.3s0.3-0.2,0.4-0.2h0c0.3,0,0.6,0.1,1,0.1c0.5,0.1,0.9,0.1,1.5,0.2c0.5,0.1,1,0.1,1.5,0.1
	c0.5,0.1,1,0.1,1.4,0.1c0.3,0,0.6-0.1,0.8-0.2s0.2-0.3,0.2-0.5c0-0.2,0-0.3-0.2-0.3c-0.1-0.1-0.3-0.3-0.5-0.4l-3.8-2.2
	c-0.6-0.3-1.1-0.8-1.5-1.2c-0.4-0.4-0.7-0.8-0.9-1.3s-0.4-0.9-0.5-1.4s-0.1-1-0.1-1.5s0-1.1,0.2-1.6c0.1-0.5,0.4-1,0.6-1.5
	s0.7-0.8,1.3-1.1c0.5-0.3,1.4-0.5,1.9-0.8v-2.3c0-0.1,0.1-0.4,0.3-0.5s0.3-0.3,0.5-0.3H34c0.2,0,0.3,0.1,0.4,0.3
	c0.1,0.1,0.2,0.3,0.2,0.5v2.2c1,0,1.5,0.1,2.3,0.3s1.3,0.2,1.7,0.4c0.2,0,0.3,0.1,0.3,0.2s0.2,0.2,0.2,0.4v3.8
	c0,0.1-0.1,0.1-0.2,0.3c-0.1,0.1-0.3,0-0.3,0h0c-0.3,0-0.8,0-1.3,0s-1,0-1.6,0s-1.2-0.1-1.7-0.1c-0.5,0-1.1,0-1.5,0
	c-0.2,0-0.3,0-0.5,0.1c0,0.1-0.1,0.2-0.1,0.3c0,0.1,0,0.3,0.1,0.4c0.1,0.1,0.3,0.3,0.8,0.5l3.6,1.9C37.4,31.6,38.3,32.3,38.8,33.1z"
	/>
</svg>
