<?xml version="1.0" encoding="utf-8"?>
<!-- Generator: Adobe Illustrator 19.0.0, SVG Export Plug-In . SVG Version: 6.00 Build 0)  -->
<svg version="1.1" id="Layer_1" xmlns="http://www.w3.org/2000/svg" xmlns:xlink="http://www.w3.org/1999/xlink" x="0px" y="0px"
	 viewBox="0 0 64 64" style="enable-background:new 0 0 64 64;" xml:space="preserve">
<style type="text/css">
	.st0{fill:#DB934C;}
</style>
<path id="XMLID_222_" class="st0" d="M56.6,55.4H52v-0.5c0-7.1-2.7-19-10-24.3C46.9,27.1,52,20,52,8.1v0.4h4.6
	c2.2,0,3.9-2.2,3.9-4.3S58.7,0,56.6,0H7.4C5.3,0,3.6,2.1,3.6,4.2s1.7,4.3,3.9,4.3H12c0,0,0-0.6,0-0.5c0,7.1,2.7,17.9,9.8,22.9
	C14.7,36.2,12,48.1,12,55.2v0.3H7.4c-2.2,0-3.9,2.2-3.9,4.3c0,2.2,1.7,4.3,3.9,4.3h49.2c2.2,0,3.9-2.2,3.9-4.3
	C60.4,57.5,58.7,55.4,56.6,55.4z M17.5,55.4v-0.5c0-8.4,3.7-18.9,9.8-21c1.2-0.5,1.9-1.4,1.9-2.6V30c0-1.2-0.7-2.3-1.9-2.7
	c-6.1-2-9.8-11.1-9.8-19.3v0.5h29V8c0,8.3-3.7,17.6-10,19.6c-1.2,0.5-1.9,1.3-1.9,2.4v1.2c0,1.2,0.7,2.2,1.9,2.6
	c4.8,1.7,10,10.4,10,21.3v0.5h-29V55.4z M44.1,9.8v0.5H19.9V9.8c0,6.8,3,14.6,8.1,16.3l7.7,0.2C41,24.5,44.1,16.6,44.1,9.8z"/>
</svg>
